# xmcd CD database file
#
# Track frame offsets:
#	150
#	36800
#	75487
#	94425
#	142275
#
# Disc length: 2324 seconds
#
# Revision: 0
# Processed by: cddbd v1.5.2PL0 Copyright (c) Steve Scherf et al.
# Submitted via: CDex 1.70beta3
#
DISCID=40091205
DTITLE=Yusef Lateef - Jazz Mood
DYEAR=1957
DGENRE=Jazz
TTITLE0=Metaphor
TTITLE1=Yusef's Mood
TTITLE2=The Biginning
TTITLE3=Morning
TTITLE4=Blues In Space
EXTD=YEAR: 1957
EXTT0=
EXTT1=
EXTT2=
EXTT3=
EXTT4=
PLAYORDER=
